<svg width="42" height="42" viewBox="0 0 42 42" fill="none" xmlns="http://www.w3.org/2000/svg">
<path d="M24.4973 14.1405C24.4973 16.0004 22.9896 17.5081 21.1298 17.5081C19.2699 17.5081 17.7622 16.0004 17.7622 14.1405C17.7622 12.2807 19.2699 10.7729 21.1298 10.7729C22.9896 10.7729 24.4973 12.2807 24.4973 14.1405Z" stroke="#898989" stroke-width="2.02054"/>
<path d="M17.7622 20.8757L14.2105 23.2436C13.2736 23.8682 12.7109 24.9196 12.7109 26.0456V27.7231C12.7109 28.5911 13.4145 29.2947 14.2824 29.2947H21.1298" stroke="#898989" stroke-width="2.02054" stroke-linecap="round" stroke-linejoin="round"/>
<path d="M28.7068 14.1406V21.7177M28.7068 21.7177V25.4807C28.7068 26.2298 28.1733 26.8831 27.4246 26.8596C26.1863 26.8206 24.4974 26.3764 24.4974 24.2433C24.4974 20.8758 28.7068 21.7177 28.7068 21.7177Z" stroke="#898989" stroke-width="1.68378" stroke-linecap="round" stroke-linejoin="round"/>
</svg>
