<svg width="42" height="42" viewBox="0 0 42 42" fill="none" xmlns="http://www.w3.org/2000/svg">
<path d="M8.50269 17.4987V26.9894C8.50269 28.5235 9.74634 29.7672 11.2805 29.7672H30.7249C32.259 29.7672 33.5027 28.5235 33.5027 26.9894V17.4987C33.5027 15.9645 32.259 14.7209 30.7249 14.7209H29.275C28.7412 14.7209 28.2334 14.4906 27.8818 14.089L25.9479 11.8805C25.5963 11.479 25.0884 11.2487 24.5547 11.2487H17.1128C16.5791 11.2487 16.0713 11.479 15.7196 11.8805L13.7857 14.089C13.4341 14.4906 12.9263 14.7209 12.3925 14.7209H11.2805C9.74634 14.7209 8.50269 15.9645 8.50269 17.4987Z" stroke="#898989" stroke-width="2" stroke-linecap="round" stroke-linejoin="round"/>
<circle cx="21.0027" cy="20.9709" r="4.16667" stroke="#898989" stroke-width="2"/>
</svg>
