<svg width="42" height="41" viewBox="0 0 42 41" fill="none" xmlns="http://www.w3.org/2000/svg">
<path d="M30.2142 13.8326L30.2142 21.8202C30.2142 22.6949 29.5051 23.404 28.6304 23.404L26.9979 23.404C26.4336 23.404 25.912 23.7042 25.6285 24.1921L22.6368 29.3404C21.8238 30.7395 19.6835 30.1627 19.6835 28.5447L19.6835 24.9879C19.6835 24.1132 18.9744 23.404 18.0996 23.404L15.9774 23.404C13.9417 23.404 12.4345 21.5115 12.89 19.5275L13.9966 14.7076C14.327 13.2686 15.6076 12.2487 17.084 12.2487L28.6304 12.2487C29.5051 12.2487 30.2142 12.9578 30.2142 13.8326Z" stroke="#898989" stroke-width="2"/>
</svg>
