<svg width="42" height="42" viewBox="0 0 42 42" fill="none" xmlns="http://www.w3.org/2000/svg">
<mask id="path-1-inside-1_13_387" fill="white">
<path d="M17.9101 27.3404C17.5196 27.7309 16.8864 27.7309 16.4959 27.3404L14.3746 25.2191C13.9841 24.8285 13.9841 24.1954 14.3746 23.8048L28.1632 10.0163C29.1395 9.03995 30.7224 9.03995 31.6987 10.0163C32.675 10.9926 32.675 12.5755 31.6987 13.5518L17.9101 27.3404Z"/>
</mask>
<path d="M17.9101 27.3404C17.5196 27.7309 16.8864 27.7309 16.4959 27.3404L14.3746 25.2191C13.9841 24.8285 13.9841 24.1954 14.3746 23.8048L28.1632 10.0163C29.1395 9.03995 30.7224 9.03995 31.6987 10.0163C32.675 10.9926 32.675 12.5755 31.6987 13.5518L17.9101 27.3404Z" stroke="#898989" stroke-width="4" mask="url(#path-1-inside-1_13_387)"/>
<path d="M13.2566 26.9295L14.7854 28.4584L11.8804 29.8346L13.2566 26.9295Z" stroke="#E0E0E0" stroke-opacity="0.5" stroke-width="2" stroke-linecap="round"/>
</svg>
