<svg width="41" height="41" viewBox="0 0 41 41" fill="none" xmlns="http://www.w3.org/2000/svg">
<path d="M29.8162 14.7352C29.8162 16.5951 28.3085 18.1028 26.4486 18.1028C24.5888 18.1028 23.0811 16.5951 23.0811 14.7352C23.0811 12.8754 24.5888 11.3677 26.4486 11.3677C28.3085 11.3677 29.8162 12.8754 29.8162 14.7352Z" stroke="#898989" stroke-width="2.02054"/>
<path d="M19.5292 23.8383L20.279 23.3384C22.1061 22.1204 24.2528 21.4705 26.4486 21.4705C28.6444 21.4705 30.7911 22.1204 32.6181 23.3384L33.3679 23.8383C34.3048 24.4629 34.8675 25.5143 34.8675 26.6403V28.3178C34.8675 29.1858 34.1639 29.8894 33.296 29.8894H26.4486H19.6012C18.7333 29.8894 18.0297 29.1858 18.0297 28.3178V26.6403C18.0297 25.5143 18.5924 24.4629 19.5292 23.8383Z" stroke="#898989" stroke-width="2.02054" stroke-linecap="round" stroke-linejoin="round"/>
<path d="M18.3974 14.7352C18.3974 16.5951 16.8897 18.1028 15.0298 18.1028C13.1699 18.1028 11.6622 16.5951 11.6622 14.7352C11.6622 12.8754 13.1699 11.3677 15.0298 11.3677C16.8897 11.3677 18.3974 12.8754 18.3974 14.7352Z" stroke="#898989" stroke-width="2.02054"/>
<path d="M15.0298 21.4705V21.4705C12.8339 21.4705 10.6872 22.1204 8.86021 23.3384L8.11042 23.8383C7.17356 24.4629 6.61084 25.5143 6.61084 26.6403V28.3178C6.61084 29.1858 7.31444 29.8894 8.18237 29.8894H14.2433" stroke="#898989" stroke-width="2.02054" stroke-linecap="round" stroke-linejoin="round"/>
</svg>
