<svg width="42" height="42" viewBox="0 0 42 42" fill="none" xmlns="http://www.w3.org/2000/svg">
<path d="M22.7395 14.4921L20.8757 16.2981L19.0118 14.4921C17.0575 12.5985 13.9223 12.703 12.0985 14.7227C10.3287 16.6825 10.085 19.6179 11.6876 21.7166C11.8845 21.9745 12.0782 22.2215 12.2625 22.4475C13.4289 23.8785 15.9739 26.3775 17.249 27.7185C18.1911 28.7093 19.038 29.5357 19.6759 30.1375C20.3497 30.7732 21.3896 30.7593 22.0646 30.125C23.241 29.0197 25.0449 27.2979 26.3156 25.9615C27.5907 24.6205 28.3224 23.8785 29.4889 22.4475C29.6731 22.2215 29.8668 21.9745 30.0637 21.7166C31.6663 19.6179 31.4226 16.6825 29.6529 14.7227C27.829 12.703 24.6939 12.5985 22.7395 14.4921Z" stroke="#898989" stroke-width="2.02054" stroke-linecap="round" stroke-linejoin="round"/>
</svg>
