<svg width="41" height="42" viewBox="0 0 41 42" fill="none" xmlns="http://www.w3.org/2000/svg">
<path d="M14.6606 16.2172H25.3841" stroke="#898989" stroke-width="2" stroke-linecap="round"/>
<path d="M14.6606 21.4344H21.8096" stroke="#898989" stroke-width="2" stroke-linecap="round"/>
<path d="M9.74597 24.4781V13.6086C9.74597 12.1678 10.9139 10.9999 12.3547 10.9999H28.1373C29.578 10.9999 30.746 12.1678 30.746 13.6086V24.4781C30.746 25.9189 29.578 27.0868 28.1373 27.0868H24.8515C24.0587 27.0868 23.3088 27.4474 22.8138 28.0668L21.8279 29.3002C21.1317 30.1713 19.8071 30.1713 19.1109 29.3002L18.125 28.0668C17.6299 27.4474 16.8801 27.0868 16.0872 27.0868H12.3547C10.9139 27.0868 9.74597 25.9189 9.74597 24.4781Z" stroke="#898989" stroke-width="2"/>
</svg>
