<svg width="41" height="42" viewBox="0 0 41 42" fill="none" xmlns="http://www.w3.org/2000/svg">
<rect width="20" height="20" rx="3" transform="matrix(1 0 0 -1 10.2487 32.2487)" stroke="#898989" stroke-width="2" stroke-linejoin="round"/>
<path d="M12.2487 12.2487H28.2487V12.2487C28.2487 10.5918 26.9055 9.24866 25.2487 9.24866H15.2487C13.5918 9.24866 12.2487 10.5918 12.2487 12.2487V12.2487Z" stroke="#898989" stroke-width="1.5" stroke-linejoin="round"/>
<path d="M20.7613 23.2045V17.8737C20.7613 17.5285 21.0411 17.2487 21.3863 17.2487H23.5027M20.7613 23.2045V26.2216C20.7613 26.7764 20.3674 27.2599 19.8127 27.2475C18.8507 27.2261 17.5027 26.8924 17.5027 25.1898C17.5027 22.5428 20.7613 23.2045 20.7613 23.2045Z" stroke="#898989" stroke-width="1.5" stroke-linecap="round" stroke-linejoin="round"/>
</svg>
