<svg width="42" height="42" viewBox="0 0 42 42" fill="none" xmlns="http://www.w3.org/2000/svg">
<path d="M22.8419 30.9998C22.4419 30.9998 22.1546 30.8708 21.9799 30.6128C21.8046 30.3541 21.7836 30.0331 21.9169 29.6498L25.5669 19.9748C25.6669 19.7081 25.8546 19.4788 26.1299 19.2868C26.4046 19.0954 26.6919 18.9998 26.9919 18.9998C27.2753 18.9998 27.5586 19.0954 27.8419 19.2868C28.1253 19.4788 28.3169 19.7081 28.4169 19.9748L32.0669 29.6498C32.2003 30.0331 32.1796 30.3541 32.0049 30.6128C31.8296 30.8708 31.5336 30.9998 31.1169 30.9998C30.9336 30.9998 30.7669 30.9414 30.6169 30.8248C30.4669 30.7081 30.3586 30.5664 30.2919 30.3998L29.4419 27.9498H24.5919L23.7169 30.3998C23.6503 30.5664 23.5336 30.7081 23.3669 30.8248C23.2003 30.9414 23.0253 30.9998 22.8419 30.9998ZM25.1919 26.1998H28.7919L27.0419 21.2498H26.9419L25.1919 26.1998ZM16.6419 17.5498C16.9086 18.0331 17.1919 18.4788 17.4919 18.8868C17.7919 19.2954 18.1419 19.7164 18.5419 20.1498C19.2753 19.3498 19.8836 18.5291 20.3669 17.6878C20.8503 16.8458 21.2586 15.9498 21.5919 14.9998H11.4919C11.2086 14.9998 10.9713 14.9041 10.7799 14.7128C10.5879 14.5208 10.4919 14.2831 10.4919 13.9998C10.4919 13.7164 10.5879 13.4788 10.7799 13.2868C10.9713 13.0954 11.2086 12.9998 11.4919 12.9998H17.4919V11.9998C17.4919 11.7164 17.5879 11.4788 17.7799 11.2868C17.9713 11.0954 18.2086 10.9998 18.4919 10.9998C18.7753 10.9998 19.0129 11.0954 19.2049 11.2868C19.3963 11.4788 19.4919 11.7164 19.4919 11.9998V12.9998H25.4919C25.7753 12.9998 26.0126 13.0954 26.2039 13.2868C26.3959 13.4788 26.4919 13.7164 26.4919 13.9998C26.4919 14.2831 26.3959 14.5208 26.2039 14.7128C26.0126 14.9041 25.7753 14.9998 25.4919 14.9998H23.5919C23.2419 16.1831 22.7669 17.3331 22.1669 18.4498C21.5669 19.5664 20.8253 20.6164 19.9419 21.5998L22.3419 24.0498L21.5919 26.0998L18.4919 22.9998L14.1919 27.2998C14.0086 27.4831 13.7753 27.5748 13.4919 27.5748C13.2086 27.5748 12.9753 27.4831 12.7919 27.2998C12.6086 27.1164 12.5169 26.8831 12.5169 26.5998C12.5169 26.3164 12.6086 26.0831 12.7919 25.8998L17.1419 21.5498C16.6919 21.0331 16.2753 20.5121 15.8919 19.9868C15.5086 19.4621 15.1669 18.9081 14.8669 18.3248C14.6836 17.9748 14.6753 17.6664 14.8419 17.3998C15.0086 17.1331 15.3003 16.9998 15.7169 16.9998C15.8836 16.9998 16.0586 17.0538 16.2419 17.1618C16.4253 17.2704 16.5586 17.3998 16.6419 17.5498Z" fill="#1ED760"/>
<circle cx="21.2432" cy="35.9999" r="2" fill="#1ED760"/>
</svg>
