<svg width="42" height="42" viewBox="0 0 42 42" fill="none" xmlns="http://www.w3.org/2000/svg">
<path d="M22.5933 30.9998C22.1933 30.9998 21.906 30.8708 21.7313 30.6128C21.556 30.3541 21.535 30.0331 21.6683 29.6498L25.3183 19.9748C25.4183 19.7081 25.606 19.4788 25.8813 19.2868C26.156 19.0954 26.4433 18.9998 26.7433 18.9998C27.0266 18.9998 27.31 19.0954 27.5933 19.2868C27.8766 19.4788 28.0683 19.7081 28.1683 19.9748L31.8183 29.6498C31.9516 30.0331 31.931 30.3541 31.7563 30.6128C31.581 30.8708 31.285 30.9998 30.8683 30.9998C30.685 30.9998 30.5183 30.9414 30.3683 30.8248C30.2183 30.7081 30.11 30.5664 30.0433 30.3998L29.1933 27.9498H24.3433L23.4683 30.3998C23.4016 30.5664 23.285 30.7081 23.1183 30.8248C22.9516 30.9414 22.7766 30.9998 22.5933 30.9998ZM24.9433 26.1998H28.5433L26.7933 21.2498H26.6933L24.9433 26.1998ZM16.3933 17.5498C16.66 18.0331 16.9433 18.4788 17.2433 18.8868C17.5433 19.2954 17.8933 19.7164 18.2933 20.1498C19.0266 19.3498 19.635 18.5291 20.1183 17.6878C20.6016 16.8458 21.01 15.9498 21.3433 14.9998H11.2433C10.96 14.9998 10.7226 14.9041 10.5313 14.7128C10.3393 14.5208 10.2433 14.2831 10.2433 13.9998C10.2433 13.7164 10.3393 13.4788 10.5313 13.2868C10.7226 13.0954 10.96 12.9998 11.2433 12.9998H17.2433V11.9998C17.2433 11.7164 17.3393 11.4788 17.5313 11.2868C17.7226 11.0954 17.96 10.9998 18.2433 10.9998C18.5266 10.9998 18.7643 11.0954 18.9563 11.2868C19.1476 11.4788 19.2433 11.7164 19.2433 11.9998V12.9998H25.2433C25.5266 12.9998 25.764 13.0954 25.9553 13.2868C26.1473 13.4788 26.2433 13.7164 26.2433 13.9998C26.2433 14.2831 26.1473 14.5208 25.9553 14.7128C25.764 14.9041 25.5266 14.9998 25.2433 14.9998H23.3433C22.9933 16.1831 22.5183 17.3331 21.9183 18.4498C21.3183 19.5664 20.5766 20.6164 19.6933 21.5998L22.0933 24.0498L21.3433 26.0998L18.2433 22.9998L13.9433 27.2998C13.76 27.4831 13.5266 27.5748 13.2433 27.5748C12.96 27.5748 12.7266 27.4831 12.5433 27.2998C12.36 27.1164 12.2683 26.8831 12.2683 26.5998C12.2683 26.3164 12.36 26.0831 12.5433 25.8998L16.8933 21.5498C16.4433 21.0331 16.0266 20.5121 15.6433 19.9868C15.26 19.4621 14.9183 18.9081 14.6183 18.3248C14.435 17.9748 14.4266 17.6664 14.5933 17.3998C14.76 17.1331 15.0516 16.9998 15.4683 16.9998C15.635 16.9998 15.81 17.0538 15.9933 17.1618C16.1766 17.2704 16.31 17.3998 16.3933 17.5498Z" fill="#898989"/>
</svg>
