<svg width="42" height="41" viewBox="0 0 42 41" fill="none" xmlns="http://www.w3.org/2000/svg">
<path d="M24.4919 13.892C24.4919 15.7518 22.9842 17.2595 21.1243 17.2595C19.2645 17.2595 17.7568 15.7518 17.7568 13.892C17.7568 12.0321 19.2645 10.5244 21.1243 10.5244C22.9842 10.5244 24.4919 12.0321 24.4919 13.892Z" stroke="#898989" stroke-width="2.02054"/>
<path d="M14.205 22.995L14.9547 22.4952C16.7818 21.2772 18.9285 20.6272 21.1243 20.6272C23.3201 20.6272 25.4668 21.2772 27.2939 22.4952L28.0436 22.995C28.9805 23.6196 29.5432 24.6711 29.5432 25.797V27.4746C29.5432 28.3425 28.8396 29.0461 27.9717 29.0461H21.1243H14.2769C13.409 29.0461 12.7054 28.3425 12.7054 27.4746V25.797C12.7054 24.6711 13.2681 23.6196 14.205 22.995Z" stroke="#898989" stroke-width="2.02054" stroke-linecap="round" stroke-linejoin="round"/>
</svg>
